<svg xmlns="http://www.w3.org/2000/svg" viewBox="0 0 100 100"><path d="M92.74,8.1a1.57,1.57,0,0,0-1.21-.46h0l-3,.16c-.57,0-1.13.07-1.69.12L86.3,8l-1.11.11-.67.09-1,.14-.72.12L82,8.6c-.26,0-.51.09-.77.15l-.78.17-.82.19-.67.17-.9.24-.48.14c-.82.24-1.63.5-2.42.79l-.09,0A38.54,38.54,0,0,0,69.56,13l-3.07-.4a13.84,13.84,0,0,0-10.53,3H12.57a5.75,5.75,0,0,0-5.74,5.75v5.12a1.24,1.24,0,0,0,0,.33,1.12,1.12,0,0,0,0,.32V68a1.24,1.24,0,0,0,0,.33,1.12,1.12,0,0,0,0,.32v5.13a5.75,5.75,0,0,0,5.74,5.75H33.21v3.2H30.08A4.07,4.07,0,0,0,26,86.84v3.93a1.6,1.6,0,0,0,1.6,1.6H66a1.6,1.6,0,0,0,1.6-1.6V86.84a4.07,4.07,0,0,0-4.07-4.07H60.41v-3.2H81a5.76,5.76,0,0,0,5.75-5.75V42.59a13.81,13.81,0,0,0,1.49-8.24l-.4-3.07a38.54,38.54,0,0,0,2.47-5.46l.05-.09c.28-.8.54-1.61.78-2.44,0-.15.1-.3.14-.45.09-.31.17-.61.25-.92s.11-.43.16-.65.13-.55.2-.83.11-.52.16-.78.11-.51.16-.77L92.4,18l.12-.72c0-.32.1-.65.14-1l.09-.66c0-.37.08-.75.11-1.12l.06-.55c0-.56.09-1.13.12-1.7l.17-3A1.65,1.65,0,0,0,92.74,8.1ZM57.21,18.74a10.66,10.66,0,0,1,7.51-3.1c.2,0,.4,0,.6,0-.72.53-1.41,1.09-2.08,1.67l-.29.25c-.28.24-.55.49-.81.74l-.3.28-.8.79-.12.13c-.5.51-1,1-1.44,1.57-.12.15-.24.29-.37.43l-.52.66c-.17.21-.35.43-.51.66l-.42.56c-.24.32-.46.65-.69,1l-.21.3c-.31.48-.62,1-.91,1.45,0,0,0,0,0,0l-6.13.09ZM48.09,39.25l1,1a6.79,6.79,0,0,0-5.22,5.85l-.1.86a11.8,11.8,0,0,0-2.16-.21A11.6,11.6,0,0,0,30.08,58.3l-.59,0A8,8,0,0,0,23,61.53a11.66,11.66,0,0,0-6.94-2.31,11.45,11.45,0,0,0-6,1.71V28.37H44.26a.94.94,0,0,0,.06.15,1.59,1.59,0,0,0,1.47,1h0l8.31-.13c-.42.9-.81,1.82-1.18,2.76L48.09,37a1.59,1.59,0,0,0-.47,1.13A1.61,1.61,0,0,0,48.09,39.25Zm-1,7.26a3.66,3.66,0,0,1,1-2.13,3.61,3.61,0,0,1,2.55-1.06h0a3.53,3.53,0,0,1,2.56,1.11L54.74,46a.12.12,0,0,0,0,.05l1.53,1.47a3.59,3.59,0,0,1-2.08,6.17l-8.07.93Zm4.39-8.39,2.83-2.83L65.57,46.55l-2.83,2.83ZM10,21.32h0a2.55,2.55,0,0,1,2.55-2.55H52.66l-6.4,6.4H10ZM63.54,86a.87.87,0,0,1,.87.87v2.33H29.21V86.84a.87.87,0,0,1,.87-.87Zm-27.13-3.2v-3.2h20.8v3.2Zm47.18-9A2.55,2.55,0,0,1,81,76.37H12.57A2.55,2.55,0,0,1,10,73.82V70H83.59Zm0-7H10V65a8.37,8.37,0,0,1,12.22.14,1.6,1.6,0,0,0,2.67-.51,4.89,4.89,0,0,1,4.58-3.15,4.83,4.83,0,0,1,1.79.35A1.61,1.61,0,0,0,33.44,60a8.39,8.39,0,0,1,8.22-10,8.18,8.18,0,0,1,1.79.2l-.67,5.84a1.58,1.58,0,0,0,.76,1.74l.13.07a1.5,1.5,0,0,0,.68.15,1.37,1.37,0,0,0,.29,0L50,57.38a6.67,6.67,0,0,1,.07,1,8.51,8.51,0,0,1-.55,3,1.6,1.6,0,0,0,2.1,2,8.43,8.43,0,0,1,3.18-.63,8.33,8.33,0,0,1,6.65,3.29,1.6,1.6,0,0,0,2.87-.9A5.85,5.85,0,0,1,75.61,63.4a1.62,1.62,0,0,0,1.33,1,1.6,1.6,0,0,0,1.51-.73A8.65,8.65,0,0,1,83.59,60Zm0-10A11.8,11.8,0,0,0,77.35,60a9,9,0,0,0-15.57,2,11.5,11.5,0,0,0-7-2.36,12.32,12.32,0,0,0-1.61.11,11.55,11.55,0,0,0,.08-1.32A12.46,12.46,0,0,0,53.15,57l1.46-.17a6.76,6.76,0,0,0,5.84-5.22l1.16,1.15a1.59,1.59,0,0,0,1.13.47,1.61,1.61,0,0,0,1.13-.47l4.89-4.89c.93-.36,1.83-.74,2.71-1.16L71.34,55a1.61,1.61,0,0,0,1,1.5,1.67,1.67,0,0,0,.62.12,1.56,1.56,0,0,0,1.13-.47l9.52-9.52ZM82.1,43.63l-7.5,7.5L74.7,45h0c.48-.29,1-.6,1.43-.91l.32-.22c.33-.22.66-.44,1-.68l.57-.42q.33-.24.66-.51l.65-.52.43-.37c.54-.47,1.07-.94,1.58-1.44l.13-.12.78-.8.28-.29c.25-.27.5-.54.74-.82.08-.09.16-.19.25-.28.58-.68,1.14-1.37,1.67-2.09h0A10.67,10.67,0,0,1,82.1,43.63Zm-9.23-1.28-.13.08a34.63,34.63,0,0,1-4.53,2.23L60,36.49l-3.85-3.86a35.46,35.46,0,0,1,2.24-4.54l.06-.11A33.35,33.35,0,0,1,75.27,13.83L87,25.57A33.31,33.31,0,0,1,72.87,42.35Zm17-30.23c0,.46-.06.93-.1,1.39l0,.33c0,.36-.07.71-.11,1.07l0,.29c0,.37-.09.75-.15,1.11,0,.07,0,.13,0,.19-.06.42-.13.83-.2,1.24,0,0,0,0,0,0a40.9,40.9,0,0,1-1,4.43l-9.51-9.51a41.46,41.46,0,0,1,4.43-1h0c.41-.08.82-.14,1.23-.2l.19,0,1.11-.15.3,0L87,11.12l.33,0,1.4-.1,1.18-.06Z"></path><path d="M78.32,22.53a7,7,0,1,0,0,9.9A7,7,0,0,0,78.32,22.53Zm-2.27,7.63a3.8,3.8,0,1,1,0-5.37A3.8,3.8,0,0,1,76.05,30.16Z"></path></svg>